# xmcd CD database file
#
# Track frame offsets:
#	150
#	24995
#	49175
#	52217
#	125727
#	161657
#	191347
#	211995
#	253570
#	286842
#
# Disc length: 4219 seconds
#
# Revision: 0
# Processed by: cddbd v1.5PL3 Copyright (c) Steve Scherf et al.
# Submitted via: CDex 1.60beta1
#
DISCID=8f10790a
DTITLE=Earl Hines  - Live at the New School
DYEAR=1973
DGENRE=Jazz
TTITLE0=As Long As I Live
TTITLE1=The Talk Of The Town
TTITLE2=Spoken Announcement
TTITLE3=Fats Waller Medley: Black And Blue - Two Sleepy People - Ain't Misbehavin' - Jitterbug Waltz - Squeeze Me - Honeysuckle Rose
TTITLE4=I've Got The World On A String
TTITLE5=International Medley: Canadian Sunset - Lullaby Of Birdland - A Night In Trinadad 
TTITLE6=Satin Doll
TTITLE7=West Side Story Medley: I Feel Pretty - Maria - America - There's A Place For Us - Tonight
TTITLE8=Medley: When The Saints Go Marchin' In - Along The Santa Fe Trail - Perdido
TTITLE9=Boogie Woogie On The St. Louis Blues
EXTD=YEAR: 1973
EXTT0=
EXTT1=
EXTT2=
EXTT3=
EXTT4=
EXTT5=
EXTT6=
EXTT7=
EXTT8=
EXTT9=
PLAYORDER=
